<svg viewBox="-0.492 -0.492 246.492 248.492" width="246.492" height="248.492" fill="none" xmlns="http://www.w3.org/2000/svg">
<path d="M164.451 51.7148C165.056 50.284 166.446 49.3655 167.981 49.3655H186.847C188.372 49.3655 189.743 50.2743 190.357 51.6761L239.062 163.486C243.253 151.014 245.526 137.653 245.526 123.751C245.526 68.8078 210 22.2372 160.845 6.08203L81.0747 195.787C80.4705 197.218 79.0797 198.146 77.5451 198.146H58.6792C57.1542 198.146 55.7826 197.237 55.1688 195.835L6.46449 84.0155C2.27312 96.4872 0 109.848 0 123.751C0 178.607 35.4108 225.11 84.4412 241.342L164.451 51.7148Z" fill="#9FFFCB"/>
<path d="M67.8402 160.43C68.1759 161.204 69.2789 161.204 69.605 160.421L136.475 0.773437C131.977 0.270703 127.402 0 122.769 0C80.7021 0 43.5744 21.3372 21.457 53.8506L67.8402 160.43Z" fill="#9FFFCB"/>
<path d="M177.7 87.0633C177.365 86.2898 176.271 86.2898 175.936 87.0729L108.797 246.701C113.381 247.223 118.043 247.503 122.771 247.503C164.838 247.503 201.966 226.166 224.084 193.653L177.7 87.0633Z" fill="#9FFFCB"/>
</svg>
